<svg xmlns="http://www.w3.org/2000/svg"  viewBox="0 0 128 128" width="128px" height="128px"><path fill="none" stroke="#454B54" stroke-linecap="round" stroke-linejoin="round" stroke-miterlimit="10" stroke-width="6" d="M51 92c0 12.2-9.8 22-22 22S7 104.2 7 92s9.8-22 22-22M93.3 71c2.1-.7 4.3-1 6.7-1 12.2 0 22 9.8 22 22s-9.8 22-22 22-22-9.8-22-22"/><path fill="none" stroke="#454B54" stroke-linecap="round" stroke-linejoin="round" stroke-miterlimit="10" stroke-width="6" d="M29 92L49 58 89.2 58 89.9 60.6 61.5 92zM43.5 46L61.5 92M37.5 46L51.5 46"/><path fill="none" stroke="#454B54" stroke-linecap="round" stroke-linejoin="round" stroke-miterlimit="10" stroke-width="6" d="M100,92L86,48h13c2.8,0,5,2.2,5,5v0c0,2.8-2.2,5-5,5h-0.5"/></svg>