<?xml version="1.0"?><svg xmlns="http://www.w3.org/2000/svg"  viewBox="0 0 30 30" width="60px" height="60px">    <path d="M 15 3 C 8.383 3 3 8.383 3 15 C 3 21.617 8.383 27 15 27 C 16.103 27 17.166641 26.838594 18.181641 26.558594 C 18.066641 26.056594 18 25.536 18 25 C 18 24.886 18.001531 24.72925 18.019531 24.53125 C 17.065531 24.83325 16.052 25 15 25 C 9.486 25 5 20.514 5 15 C 5 9.486 9.486 5 15 5 C 20.514 5 25 9.486 25 15 L 25 15.005859 C 25.713 15.005859 26.39075 15.244719 26.96875 15.636719 C 26.97975 15.424719 27 15.215 27 15 C 27 8.383 21.617 3 15 3 z M 15 7 C 13.873 7 12.800172 7.2371563 11.826172 7.6601562 L 13.390625 9.2246094 C 13.904625 9.0816094 14.442 9 15 9 C 18.309 9 21 11.691 21 15 C 21 15.01 20.998047 15.020297 20.998047 15.029297 L 22.998047 15.029297 C 22.998047 15.020297 23 15.01 23 15 C 23 10.589 19.411 7 15 7 z M 9.4902344 8.4902344 A 1.0001 1.0001 0 0 0 8.6972656 10.099609 C 7.6388352 11.454694 7 13.151153 7 15 C 7 15.01 7.0019531 15.020297 7.0019531 15.029297 L 9.0019531 15.029297 C 9.0019531 15.020297 9 15.01 9 15 C 9 13.706164 9.4185309 12.513017 10.119141 11.533203 L 13.070312 14.484375 A 2 2 0 0 0 13 15 A 2 2 0 0 0 15 17 A 2 2 0 0 0 17 15 A 2 2 0 0 0 15 13 A 2 2 0 0 0 14.482422 13.068359 L 10.207031 8.7929688 A 1.0001 1.0001 0 0 0 9.4902344 8.4902344 z M 25 17.005859 C 24.53425 17.005859 24.067719 17.216672 23.761719 17.638672 C 22.281719 19.682672 20 23.135 20 25 C 20 27.761 22.239 30 25 30 C 27.761 30 30 27.761 30 25 C 30 23.135 27.717328 19.682672 26.236328 17.638672 C 25.930328 17.216672 25.46575 17.005859 25 17.005859 z"/></svg>