<svg xmlns="http://www.w3.org/2000/svg"  viewBox="0 0 24 24" width="48px" height="48px"><path d="M 9.0019531 2.0039062 C 8.7449531 2.0039062 8.4862813 2.1390625 8.3632812 2.4140625 L 1.1601562 18.423828 C 0.61615625 19.632828 1.4992187 21 2.8242188 21 L 8.2148438 21 L 18 21 L 21.242188 21 C 22.580188 21 23.430109 19.567531 22.787109 18.394531 L 16.796875 7.4550781 C 16.628875 7.1480781 16.325484 6.9941406 16.021484 6.9941406 C 15.711484 6.9941406 15.400328 7.1556562 15.236328 7.4726562 L 13.455078 10.900391 L 9.6386719 2.4140625 C 9.5146719 2.1400625 9.2589531 2.0039062 9.0019531 2.0039062 z M 9.0019531 7.0917969 L 10.914062 11.341797 L 10.365234 11.716797 L 9.7597656 11.257812 A 1.250125 1.250125 0 0 0 8.2519531 11.257812 L 7.6445312 11.716797 L 7.0917969 11.335938 L 9.0019531 7.0917969 z"/></svg>