<svg xmlns="http://www.w3.org/2000/svg"  viewBox="0 0 50 50" width="100px" height="100px"><path d="M 37 4 A 5 5 0 0 0 37 14 A 5 5 0 0 0 37 4 z M 20.605469 8.7421875 C 19.890469 8.7421875 19.180406 8.9625781 18.566406 9.3925781 L 11.179688 15.314453 C 10.424687 15.919453 10.089219 16.916516 10.324219 17.853516 C 10.521219 18.641516 11.092563 19.286219 11.851562 19.574219 C 12.137562 19.682219 12.436375 19.734375 12.734375 19.734375 C 13.228375 19.734375 13.718719 19.588734 14.136719 19.302734 L 21.0625 14.5625 L 25.150391 16.197266 L 19.433594 22.548828 C 18.602594 23.471828 18.198016 24.661391 18.291016 25.900391 C 18.385016 27.139391 18.967688 28.254969 19.929688 29.042969 L 27.308594 35.082031 L 23.390625 40.205078 C 22.789625 40.991078 22.638281 42.014453 22.988281 42.939453 C 23.337281 43.865453 24.125703 44.534516 25.095703 44.728516 C 25.279703 44.765516 25.463438 44.783203 25.648438 44.783203 C 26.445438 44.783203 27.222625 44.449609 27.765625 43.849609 L 33.658203 37.349609 C 34.471203 36.447609 34.878641 35.284266 34.806641 34.072266 C 34.734641 32.861266 34.191344 31.752125 33.277344 30.953125 L 28.644531 26.898438 L 32.822266 19.935547 C 33.886266 18.162547 33.609484 15.9005 32.146484 14.4375 L 29.919922 12.212891 C 28.830922 11.123891 27.466656 10.350562 25.972656 9.9765625 L 21.449219 8.8457031 C 21.171219 8.7767031 20.887469 8.7421875 20.605469 8.7421875 z M 44.986328 12.689453 C 44.235664 12.680967 43.495781 13.024453 43.019531 13.673828 L 38.888672 19.306641 L 35.417969 16.826172 C 35.589969 18.227172 35.306109 19.683844 34.537109 20.964844 L 33.630859 22.478516 L 37.234375 24.480469 C 37.913375 24.856469 38.658109 25.048828 39.412109 25.048828 C 39.833109 25.048828 40.256875 24.987187 40.671875 24.867188 C 41.832875 24.530188 42.791234 23.762938 43.365234 22.710938 L 47.046875 16.294922 C 47.674875 15.200922 47.345922 13.795703 46.294922 13.095703 C 45.891422 12.827203 45.436727 12.694545 44.986328 12.689453 z M 17.267578 29.005859 L 9.90625 41.792969 C 9.48625 42.522969 9.4490469 43.386719 9.7480469 44.136719 L 5.7695312 39.359375 C 5.4155312 38.935375 4.785375 38.879422 4.359375 39.232422 C 3.935375 39.586422 3.8794219 40.215625 4.2324219 40.640625 L 7.8632812 45 L 3 45 L 3 47 L 10 47 L 12 47 L 16 47 C 16.553 47 17 46.553 17 46 C 17 45.447 16.553 45 16 45 L 14.171875 45 C 14.255875 44.913 14.344969 44.830469 14.417969 44.730469 L 22.490234 33.722656 L 18.662109 30.589844 C 18.103109 30.132844 17.638578 29.596859 17.267578 29.005859 z"/></svg>