<svg xmlns="http://www.w3.org/2000/svg"  viewBox="0 0 26 26" width="52px" height="52px"><path d="M 19.5 0.125 C 18.191406 0.125 17.125 1.191406 17.125 2.5 C 17.125 3.808594 18.191406 4.875 19.5 4.875 C 20.808594 4.875 21.875 3.808594 21.875 2.5 C 21.875 1.191406 20.808594 0.125 19.5 0.125 Z M 11 3.78125 C 10.839844 3.8125 10.703125 3.875 10.5625 3.96875 L 7.03125 6.6875 C 6.453125 7.1875 5.898438 7.8125 6.28125 8.375 C 6.523438 8.738281 7.375 8.546875 7.8125 8.28125 L 11.5 6.3125 L 13.90625 6.84375 L 10.625 11.6875 C 9.875 12.988281 9.648438 14.003906 11 15.15625 L 12.53125 16.09375 L 15.65625 18.25 L 13.6875 23.03125 C 12.953125 24.792969 13.152344 25.566406 13.65625 25.78125 C 14.160156 25.996094 14.828125 25.882813 15.875 23.96875 L 18.84375 18.3125 C 19.132813 17.660156 18.933594 16.902344 18.34375 16.5 L 14.59375 13.9375 L 17.25 9.65625 L 18.3125 12.03125 C 18.488281 12.425781 18.882813 12.792969 19.3125 12.84375 C 19.3125 12.84375 22.339844 12.796875 23.15625 12.75 C 24.015625 12.703125 24.976563 12.527344 25 11.9375 C 25.03125 11.09375 24.210938 11.054688 23.4375 11 L 20.4375 10.71875 L 18.6875 6.8125 C 18.667969 6.765625 18.621094 6.730469 18.59375 6.6875 C 18.585938 6.652344 18.574219 6.625 18.5625 6.59375 C 18.550781 6.574219 18.546875 6.550781 18.53125 6.53125 C 18.503906 6.484375 18.476563 6.464844 18.4375 6.4375 L 18.40625 6.40625 C 18.289063 6.296875 18.148438 6.210938 18 6.15625 L 16.21875 4.90625 C 16.089844 4.8125 15.945313 4.753906 15.78125 4.71875 L 11.5 3.78125 C 11.335938 3.746094 11.160156 3.75 11 3.78125 Z M 9.125 15.09375 L 7.71875 17.03125 C 7.71875 17.03125 4.035156 17.296875 2.71875 17.375 C 1.710938 17.433594 1.125 17.816406 1.125 18.46875 C 1.125 19.121094 1.609375 19.476563 3.0625 19.59375 C 4.289063 19.691406 8.5 19.9375 8.5 19.9375 C 8.988281 19.9375 9.507813 19.683594 9.84375 19.1875 L 11.21875 17.1875 C 11.21875 17.1875 9.265625 15.867188 9.125 15.09375 Z"/></svg>