<svg xmlns="http://www.w3.org/2000/svg"  viewBox="0 0 24 24" width="48px" height="48px"><path d="M 4.25 3 A 1.250125 1.250125 0 1 0 4.25 5.5 L 15.75 5.5 A 1.250125 1.250125 0 1 0 15.75 3 L 4.25 3 z M 18.480469 7.9824219 A 1.250125 1.250125 0 0 0 17.25 9.25 L 17.25 15.894531 L 15.917969 15.421875 A 1.250125 1.250125 0 0 0 14.615234 17.484375 L 17.615234 20.484375 A 1.250125 1.250125 0 0 0 19.384766 20.484375 L 22.384766 17.484375 A 1.250125 1.250125 0 0 0 21.082031 15.421875 L 19.75 15.894531 L 19.75 9.25 A 1.250125 1.250125 0 0 0 18.480469 7.9824219 z M 4.25 8 A 1.250125 1.250125 0 1 0 4.25 10.5 L 12.75 10.5 A 1.250125 1.250125 0 1 0 12.75 8 L 4.25 8 z M 4.25 13 A 1.250125 1.250125 0 1 0 4.25 15.5 L 9.75 15.5 A 1.250125 1.250125 0 1 0 9.75 13 L 4.25 13 z M 4.25 18 A 1.250125 1.250125 0 1 0 4.25 20.5 L 6.75 20.5 A 1.250125 1.250125 0 1 0 6.75 18 L 4.25 18 z"/></svg>