<svg xmlns="http://www.w3.org/2000/svg"  viewBox="0 0 50 50" width="50px" height="50px"><path d="M 22.5 13 C 22.011719 13 21.554688 13.148438 21.171875 13.390625 L 21.160156 13.390625 L 9.429688 19.242188 L 9.429688 19.25 C 8.585938 19.648438 8 20.503906 8 21.5 C 8 22.882813 9.117188 24 10.5 24 C 10.917969 24 11.304688 23.886719 11.652344 23.707031 L 11.65625 23.71875 L 21.582031 19.042969 L 24.792969 24.25 L 8.832031 33.96875 C 4.179688 32.574219 1.679688 30.265625 1.679688 30.265625 C 1.480469 30.078125 1.21875 29.980469 0.945313 29.992188 C 0.539063 30.007813 0.183594 30.269531 0.046875 30.652344 C -0.0898438 31.035156 0.0195313 31.464844 0.320313 31.734375 C 0.320313 31.734375 6.085938 37 16 37 C 20.921875 37 24.386719 35.953125 27.371094 34.949219 C 30.351563 33.941406 32.8125 33 36 33 C 42.371094 33 48.457031 36.84375 48.457031 36.84375 C 48.925781 37.140625 49.542969 37.007813 49.84375 36.542969 C 50.140625 36.074219 50.007813 35.457031 49.542969 35.15625 C 49.542969 35.15625 43.160156 31 36 31 C 35.242188 31 34.527344 31.054688 33.832031 31.140625 C 33.941406 30.777344 34 30.394531 34 30 C 34 29.214844 33.765625 28.484375 33.375 27.871094 L 33.378906 27.859375 L 24.578125 14.113281 C 24.128906 13.441406 23.367188 13 22.5 13 Z M 40 18 C 37.238281 18 35 20.238281 35 23 C 35 25.761719 37.238281 28 40 28 C 42.761719 28 45 25.761719 45 23 C 45 20.238281 42.761719 18 40 18 Z"/></svg>