<svg xmlns="http://www.w3.org/2000/svg"  viewBox="0 0 50 50" width="50px" height="50px"><path d="M 23.560547 0 C 21.075547 0 19.060547 2.015 19.060547 4.5 C 19.060547 6.985 21.075547 9 23.560547 9 C 26.045547 9 28.060547 6.985 28.060547 4.5 C 28.060547 2.015 26.045547 0 23.560547 0 z M 19.566406 8.9902344 C 19.494406 8.9922344 17.784484 9.0448281 16.521484 9.4238281 L 10.013672 11.634766 C 9.3196719 11.911766 8.8682031 12.331234 8.6582031 12.865234 L 5.3398438 19.121094 C 4.7118437 20.251094 4.9782812 21.616047 5.9882812 22.373047 C 6.5892812 22.793047 7.3396875 22.939484 8.0546875 22.771484 C 8.7596875 22.605484 9.36675 22.143094 9.71875 21.496094 L 12.453125 16.296875 L 15.896484 14.949219 L 13.417969 22.560547 C 12.965969 24.142547 13.378125 25.586344 14.703125 26.902344 L 22.240234 32.410156 L 24.683594 41.027344 C 24.918193 41.854457 25.543268 42.466153 26.302734 42.71875 C 22.811812 42.912134 19.835801 43.071867 16.175781 43.277344 C 9.5987812 43.645344 3.386 43.995 3 44 C 1.346 44 0 45.346 0 47 C 0 48.654 1.346 50 3 50 L 35.539062 50 C 34.585062 48.938 34 47.537 34 46 C 34 44.567 34.506656 43.25175 35.347656 42.21875 C 33.567716 42.312332 30.509985 42.487129 28.113281 42.619141 C 28.600974 42.400522 29.007007 42.038886 29.271484 41.564453 C 29.597484 40.981453 29.675141 40.306062 29.494141 39.664062 L 26.78125 30.097656 C 26.45725 29.083656 25.844094 28.465687 25.496094 28.179688 L 21.675781 25.214844 L 23.65625 18.611328 L 24.982422 20.775391 C 25.501422 21.554391 26.271609 22 27.099609 22 L 34 22 C 34.74 22 35.445547 21.669797 35.935547 21.091797 C 36.406547 20.535797 36.608187 19.814187 36.492188 19.117188 L 36.490234 19.101562 C 36.246234 17.883563 35.157391 17 33.900391 17 L 28.578125 17 L 25.626953 12.238281 C 24.456953 10.325281 21.971406 8.9902344 19.566406 8.9902344 z M 48.980469 15.589844 A 1.0001 1.0001 0 0 0 48.292969 15.892578 L 41.09375 23.09375 A 1.0001 1.0001 0 1 0 42.507812 24.507812 L 44.695312 22.320312 L 40.476562 42.03125 A 4 4 0 0 0 40 42 A 4 4 0 0 0 40 50 A 4 4 0 0 0 42.361328 42.773438 A 1.0001 1.0001 0 0 0 42.376953 42.708984 L 47.277344 19.808594 A 1.0001 1.0001 0 0 0 47.292969 19.720703 L 49.707031 17.306641 A 1.0001 1.0001 0 0 0 48.980469 15.589844 z M 13.234375 27.951172 L 11.787109 30.751953 L 5.1875 30.251953 C 3.8875 30.151953 2.6878906 31.151172 2.5878906 32.451172 C 2.4878906 33.751172 3.4871094 34.951734 4.7871094 35.052734 C 4.7871094 35.052734 13.187109 35.652344 13.287109 35.652344 C 14.187109 35.652344 15.086328 35.051953 15.486328 34.251953 L 16.904297 31.060547 L 13.746094 28.5 L 13.662109 28.433594 L 13.589844 28.359375 C 13.454844 28.223375 13.351375 28.088172 13.234375 27.951172 z M 3 46 C 3.551 46 4 46.448 4 47 C 4 47.552 3.551 48 3 48 C 2.449 48 2 47.552 2 47 C 2 46.448 2.449 46 3 46 z"/></svg>