<svg xmlns="http://www.w3.org/2000/svg"  viewBox="0 0 26 26" width="52px" height="52px"><path d="M 15.5 0 C 13.210938 0 11.3125 1.292969 10.15625 3.09375 C 9.9375 3.0625 9.734375 3 9.5 3 C 6.996094 3 5 4.734375 4.34375 7.03125 C 1.945313 7.117188 0 9.082031 0 11.5 C 0 13.972656 2.027344 16 4.5 16 L 20.5 16 C 23.527344 16 26 13.527344 26 10.5 C 26 7.925781 24.179688 5.835938 21.78125 5.25 C 21.183594 2.277344 18.640625 0 15.5 0 Z M 15.5 2 C 17.871094 2 19.78125 3.808594 19.96875 6.125 L 20.0625 6.96875 L 20.875 7.03125 C 22.636719 7.21875 24 8.683594 24 10.5 C 24 12.445313 22.445313 14 20.5 14 L 4.5 14 C 3.109375 14 2 12.890625 2 11.5 C 2 10.109375 3.109375 9 4.5 9 C 4.589844 9 4.699219 9.003906 4.875 9.03125 L 5.9375 9.21875 L 6.03125 8.15625 C 6.207031 6.378906 7.675781 5 9.5 5 C 9.761719 5 10.03125 5.027344 10.3125 5.09375 L 11.09375 5.28125 L 11.4375 4.5625 C 12.160156 3.046875 13.699219 2 15.5 2 Z M 22.96875 16.84375 C 22.019531 17.335938 19.84375 18.128906 19.28125 19.03125 C 18.714844 19.933594 18.972656 21.121094 19.875 21.6875 C 20.773438 22.253906 21.894531 21.914063 22.53125 21.0625 C 23.097656 20.304688 22.96875 18.882813 22.96875 16.84375 Z M 5.96875 17.84375 C 5.019531 18.335938 2.84375 19.128906 2.28125 20.03125 C 1.714844 20.933594 1.972656 22.121094 2.875 22.6875 C 3.773438 23.253906 4.894531 22.914063 5.53125 22.0625 C 6.097656 21.304688 5.96875 19.882813 5.96875 17.84375 Z M 12.375 18.96875 C 12.128906 19.023438 11.957031 19.246094 11.96875 19.5 L 11.96875 21.21875 L 10.75 20 C 10.636719 19.882813 10.476563 19.824219 10.3125 19.84375 C 10.101563 19.855469 9.921875 19.992188 9.851563 20.191406 C 9.78125 20.390625 9.839844 20.613281 10 20.75 L 11.21875 21.96875 L 9.5 21.96875 C 9.480469 21.96875 9.457031 21.96875 9.4375 21.96875 C 9.144531 21.984375 8.921875 22.238281 8.9375 22.53125 C 8.953125 22.824219 9.207031 23.046875 9.5 23.03125 L 11.21875 23.03125 L 10 24.25 C 9.792969 24.457031 9.792969 24.792969 10 25 C 10.207031 25.207031 10.542969 25.207031 10.75 25 L 11.96875 23.78125 L 11.96875 25.5 C 11.96875 25.792969 12.207031 26.03125 12.5 26.03125 C 12.792969 26.03125 13.03125 25.792969 13.03125 25.5 L 13.03125 23.78125 L 14.25 25 C 14.457031 25.207031 14.792969 25.207031 15 25 C 15.207031 24.792969 15.207031 24.457031 15 24.25 L 13.78125 23.03125 L 15.5 23.03125 C 15.792969 23.03125 16.03125 22.792969 16.03125 22.5 C 16.03125 22.207031 15.792969 21.96875 15.5 21.96875 L 13.78125 21.96875 L 15 20.75 C 15.167969 20.605469 15.222656 20.367188 15.136719 20.164063 C 15.054688 19.957031 14.847656 19.828125 14.625 19.84375 C 14.484375 19.84375 14.347656 19.898438 14.25 20 L 13.03125 21.21875 L 13.03125 19.5 C 13.035156 19.347656 12.972656 19.199219 12.859375 19.09375 C 12.746094 18.992188 12.589844 18.945313 12.4375 18.96875 C 12.417969 18.96875 12.394531 18.96875 12.375 18.96875 Z"/></svg>