<svg xmlns="http://www.w3.org/2000/svg"  viewBox="0 0 50 50" width="50px" height="50px"><path d="M 14.5 4 C 11.479425 4 8.8081275 5.5957106 7.3066406 7.9824219 A 2.0002 2.0002 0 1 0 10.693359 10.111328 C 11.491873 8.8420395 12.880575 8 14.5 8 C 17.049111 8 19.063939 10.049201 18.998047 12.621094 C 18.935414 15.054236 16.747086 17 14.199219 17 L 5 17 A 2.0002 2.0002 0 1 0 5 21 L 14.199219 21 C 18.801352 21 22.87668 17.437514 22.998047 12.722656 C 23.120155 7.9565495 19.244889 4 14.5 4 z M 37 7 C 33.24811 7 29.954961 9.0827278 28.25 12.160156 A 2.0007172 2.0007172 0 1 0 31.75 14.099609 C 32.773039 12.253038 34.72389 11 37 11 C 40.461092 11 43.200084 13.849073 42.988281 17.373047 C 42.797712 20.543764 39.964974 23 36.6875 23 L 5 23 A 2.0002 2.0002 0 1 0 5 27 L 36.6875 27 C 41.976026 27 46.657038 22.994565 46.980469 17.613281 C 47.326666 11.853255 42.702908 7 37 7 z M 5 29 A 2.0002 2.0002 0 1 0 5 33 L 24.199219 33 C 26.747086 33 28.935414 34.945764 28.998047 37.378906 C 29.063939 39.950799 27.049111 42 24.5 42 C 22.880575 42 21.491873 41.157961 20.693359 39.888672 A 2.0002 2.0002 0 1 0 17.306641 42.017578 C 18.808127 44.404289 21.479425 46 24.5 46 C 29.244889 46 33.120155 42.043451 32.998047 37.277344 C 32.87668 32.562486 28.801352 29 24.199219 29 L 5 29 z"/></svg>